<svg width="686" height="539" viewBox="0 0 686 539" fill="none" xmlns="http://www.w3.org/2000/svg">
<g clip-path="url(#clip0_11_32)">
<path d="M-57 621L-56.8 200.6L743 -83L742.8 337.4L-57 621Z" fill="#000105"/>
<path d="M0.399902 243V538.1L108.4 499.7V204.7L0.399902 243Z" fill="#FFF243"/>
<path d="M685.8 0.100006L579.3 37.9V333L685.8 295.2V0.100006Z" fill="#FFF243"/>
<path d="M311.3 132.7L204.6 170.5V275.5L311.3 410.8V132.7Z" fill="#FFF243"/>
<path d="M560.5 44.4L453.7 82.3V187.3L560.5 322.6V44.4Z" fill="#FFF243"/>
<path d="M127.1 382.7L195.3 468.9L302.6 430.8L127.1 209.5V382.7Z" fill="#FFF243"/>
<path d="M329.9 126V236.4L372 289L329.9 304.1V381.8L420 349.8L444.1 380.4L552.2 342.2L369.8 111.8L329.9 126Z" fill="#FFF243"/>
</g>
<defs>
<clipPath id="clip0_11_32">
<rect width="686" height="539" fill="white"/>
</clipPath>
</defs>
</svg>
